{
	"asset":{
		"generator":"Khronos glTF Blender I/O v4.1.62",
		"version":"2.0"
	},
	"extensionsUsed":[
		"KHR_materials_transmission",
		"KHR_materials_ior"
	],
	"scene":0,
	"scenes":[
		{
			"name":"Scene",
			"nodes":[
				0
			]
		}
	],
	"nodes":[
		{
			"mesh":0,
			"name":"Frame_Baked",
			"rotation":[
				-0.7071068286895752,
				0,
				0,
				0.7071068286895752
			],
			"translation":[
				0,
				0,
				-0.3111478090286255
			]
		}
	],
	"materials":[
		{
			"alphaMode":"BLEND",
			"doubleSided":true,
			"extensions":{
				"KHR_materials_transmission":{
					"transmissionFactor":1,
					"transmissionTexture":{
						"index":0
					}
				},
				"KHR_materials_ior":{
					"ior":1.4500000476837158
				}
			},
			"name":"Frame_Baked",
			"normalTexture":{
				"index":1
			},
			"pbrMetallicRoughness":{
				"baseColorTexture":{
					"index":2
				},
				"metallicRoughnessTexture":{
					"index":3
				}
			}
		},
		{
			"alphaMode":"BLEND",
			"doubleSided":true,
			"extensions":{
				"KHR_materials_transmission":{
					"transmissionFactor":1,
					"transmissionTexture":{
						"index":4
					}
				},
				"KHR_materials_ior":{
					"ior":1.4500000476837158
				}
			},
			"name":"Rubber_Baked",
			"normalTexture":{
				"index":5
			},
			"pbrMetallicRoughness":{
				"baseColorTexture":{
					"index":6
				},
				"metallicRoughnessTexture":{
					"index":7
				}
			}
		},
		{
			"alphaMode":"BLEND",
			"doubleSided":true,
			"extensions":{
				"KHR_materials_transmission":{
					"transmissionFactor":1,
					"transmissionTexture":{
						"index":8
					}
				},
				"KHR_materials_ior":{
					"ior":1.4500000476837158
				}
			},
			"name":"Screws_Baked",
			"normalTexture":{
				"index":9
			},
			"pbrMetallicRoughness":{
				"baseColorTexture":{
					"index":10
				},
				"metallicRoughnessTexture":{
					"index":11
				}
			}
		},
		{
			"alphaMode":"BLEND",
			"doubleSided":true,
			"extensions":{
				"KHR_materials_transmission":{
					"transmissionFactor":1,
					"transmissionTexture":{
						"index":12
					}
				},
				"KHR_materials_ior":{
					"ior":1.4500000476837158
				}
			},
			"name":"Heating_Baked",
			"normalTexture":{
				"index":13
			},
			"pbrMetallicRoughness":{
				"baseColorTexture":{
					"index":14
				},
				"metallicRoughnessTexture":{
					"index":15
				}
			}
		},
		{
			"alphaMode":"BLEND",
			"doubleSided":true,
			"extensions":{
				"KHR_materials_transmission":{
					"transmissionFactor":1,
					"transmissionTexture":{
						"index":16
					}
				},
				"KHR_materials_ior":{
					"ior":1.4500000476837158
				}
			},
			"name":"Window_Inside_Baked",
			"normalTexture":{
				"index":17
			},
			"pbrMetallicRoughness":{
				"baseColorTexture":{
					"index":18
				},
				"metallicRoughnessTexture":{
					"index":19
				}
			}
		},
		{
			"alphaMode":"BLEND",
			"doubleSided":true,
			"extensions":{
				"KHR_materials_transmission":{
					"transmissionFactor":1,
					"transmissionTexture":{
						"index":20
					}
				},
				"KHR_materials_ior":{
					"ior":1.4500000476837158
				}
			},
			"name":"Window_Outside_Baked",
			"normalTexture":{
				"index":21
			},
			"pbrMetallicRoughness":{
				"baseColorTexture":{
					"index":22
				},
				"metallicRoughnessTexture":{
					"index":23
				}
			}
		}
	],
	"meshes":[
		{
			"name":"Circle.003",
			"primitives":[
				{
					"attributes":{
						"POSITION":0,
						"NORMAL":1,
						"TEXCOORD_0":2
					},
					"indices":3,
					"material":0
				},
				{
					"attributes":{
						"POSITION":4,
						"NORMAL":5,
						"TEXCOORD_0":6
					},
					"indices":7,
					"material":1
				},
				{
					"attributes":{
						"POSITION":8,
						"NORMAL":9,
						"TEXCOORD_0":10
					},
					"indices":11,
					"material":2
				},
				{
					"attributes":{
						"POSITION":12,
						"NORMAL":13,
						"TEXCOORD_0":14
					},
					"indices":15,
					"material":3
				},
				{
					"attributes":{
						"POSITION":16,
						"NORMAL":17,
						"TEXCOORD_0":18
					},
					"indices":19,
					"material":4
				},
				{
					"attributes":{
						"POSITION":20,
						"NORMAL":21,
						"TEXCOORD_0":22
					},
					"indices":19,
					"material":5
				}
			]
		}
	],
	"textures":[
		{
			"sampler":0,
			"source":0
		},
		{
			"sampler":0,
			"source":1
		},
		{
			"sampler":0,
			"source":2
		},
		{
			"sampler":0,
			"source":3
		},
		{
			"sampler":0,
			"source":4
		},
		{
			"sampler":0,
			"source":5
		},
		{
			"sampler":0,
			"source":6
		},
		{
			"sampler":0,
			"source":7
		},
		{
			"sampler":0,
			"source":8
		},
		{
			"sampler":0,
			"source":9
		},
		{
			"sampler":0,
			"source":10
		},
		{
			"sampler":0,
			"source":11
		},
		{
			"sampler":0,
			"source":12
		},
		{
			"sampler":0,
			"source":13
		},
		{
			"sampler":0,
			"source":14
		},
		{
			"sampler":0,
			"source":15
		},
		{
			"sampler":0,
			"source":16
		},
		{
			"sampler":0,
			"source":17
		},
		{
			"sampler":0,
			"source":18
		},
		{
			"sampler":0,
			"source":19
		},
		{
			"sampler":0,
			"source":20
		},
		{
			"sampler":0,
			"source":21
		},
		{
			"sampler":0,
			"source":22
		},
		{
			"sampler":0,
			"source":23
		}
	],
	"images":[
		{
			"mimeType":"image/png",
			"name":"Frame_Bake1_PBR_Transmission",
			"uri":"Frame_Bake1_PBR_Transmission.png"
		},
		{
			"mimeType":"image/png",
			"name":"Frame_Bake1_PBR_Normal",
			"uri":"Frame_Bake1_PBR_Normal.png"
		},
		{
			"mimeType":"image/png",
			"name":"Frame_Bake1_PBR_Diffuse",
			"uri":"Frame_Bake1_PBR_Diffuse.png"
		},
		{
			"mimeType":"image/png",
			"name":"Frame_Bake1_PBR_Metalness-Frame_Bake1_PBR_Roughness",
			"uri":"Frame_Bake1_PBR_Metalness-Frame_Bake1_PBR_Roughness.png"
		},
		{
			"mimeType":"image/png",
			"name":"Rubber_Bake1_PBR_Transmission",
			"uri":"Rubber_Bake1_PBR_Transmission.png"
		},
		{
			"mimeType":"image/png",
			"name":"Rubber_Bake1_PBR_Normal",
			"uri":"Rubber_Bake1_PBR_Normal.png"
		},
		{
			"mimeType":"image/png",
			"name":"Rubber_Bake1_PBR_Diffuse",
			"uri":"Rubber_Bake1_PBR_Diffuse.png"
		},
		{
			"mimeType":"image/png",
			"name":"Rubber_Bake1_PBR_Metalness-Rubber_Bake1_PBR_Roughness",
			"uri":"Rubber_Bake1_PBR_Metalness-Rubber_Bake1_PBR_Roughness.png"
		},
		{
			"mimeType":"image/png",
			"name":"Screws_Bake1_PBR_Transmission",
			"uri":"Screws_Bake1_PBR_Transmission.png"
		},
		{
			"mimeType":"image/png",
			"name":"Screws_Bake1_PBR_Normal",
			"uri":"Screws_Bake1_PBR_Normal.png"
		},
		{
			"mimeType":"image/png",
			"name":"Screws_Bake1_PBR_Diffuse",
			"uri":"Screws_Bake1_PBR_Diffuse.png"
		},
		{
			"mimeType":"image/png",
			"name":"Screws_Bake1_PBR_Metalness-Screws_Bake1_PBR_Roughness",
			"uri":"Screws_Bake1_PBR_Metalness-Screws_Bake1_PBR_Roughness.png"
		},
		{
			"mimeType":"image/png",
			"name":"Heating_Bake1_PBR_Transmission",
			"uri":"Heating_Bake1_PBR_Transmission.png"
		},
		{
			"mimeType":"image/png",
			"name":"Heating_Bake1_PBR_Normal",
			"uri":"Heating_Bake1_PBR_Normal.png"
		},
		{
			"mimeType":"image/png",
			"name":"Heating_Bake1_PBR_Diffuse",
			"uri":"Heating_Bake1_PBR_Diffuse.png"
		},
		{
			"mimeType":"image/png",
			"name":"Heating_Bake1_PBR_Metalness-Heating_Bake1_PBR_Roughness",
			"uri":"Heating_Bake1_PBR_Metalness-Heating_Bake1_PBR_Roughness.png"
		},
		{
			"mimeType":"image/png",
			"name":"Window_Inside_Bake1_PBR_Transmission",
			"uri":"Window_Inside_Bake1_PBR_Transmission.png"
		},
		{
			"mimeType":"image/png",
			"name":"Window_Inside_Bake1_PBR_Normal",
			"uri":"Window_Inside_Bake1_PBR_Normal.png"
		},
		{
			"mimeType":"image/png",
			"name":"Window_Inside_Bake1_PBR_Diffuse",
			"uri":"Window_Inside_Bake1_PBR_Diffuse.png"
		},
		{
			"mimeType":"image/png",
			"name":"Window_Inside_Bake1_PBR_Metalness-Window_Inside_Bake1_PBR_Roughness",
			"uri":"Window_Inside_Bake1_PBR_Metalness-Window_Inside_Bake1_PBR_Roughness.png"
		},
		{
			"mimeType":"image/png",
			"name":"Window_Outside_Bake1_PBR_Transmission",
			"uri":"Window_Outside_Bake1_PBR_Transmission.png"
		},
		{
			"mimeType":"image/png",
			"name":"Window_Outside_Bake1_PBR_Normal",
			"uri":"Window_Outside_Bake1_PBR_Normal.png"
		},
		{
			"mimeType":"image/png",
			"name":"Window_Outside_Bake1_PBR_Diffuse",
			"uri":"Window_Outside_Bake1_PBR_Diffuse.png"
		},
		{
			"mimeType":"image/png",
			"name":"Window_Outside_Bake1_PBR_Metalness-Window_Outside_Bake1_PBR_Roughness",
			"uri":"Window_Outside_Bake1_PBR_Metalness-Window_Outside_Bake1_PBR_Roughness.png"
		}
	],
	"accessors":[
		{
			"bufferView":0,
			"componentType":5126,
			"count":39905,
			"max":[
				2.971113443374634,
				4.514032298175152e-06,
				1.7466943264007568
			],
			"min":[
				-2.971113443374634,
				-0.6120906472206116,
				-2.8941359519958496
			],
			"type":"VEC3"
		},
		{
			"bufferView":1,
			"componentType":5126,
			"count":39905,
			"type":"VEC3"
		},
		{
			"bufferView":2,
			"componentType":5126,
			"count":39905,
			"type":"VEC2"
		},
		{
			"bufferView":3,
			"componentType":5123,
			"count":98298,
			"type":"SCALAR"
		},
		{
			"bufferView":4,
			"componentType":5126,
			"count":1212,
			"max":[
				2.8915233612060547,
				-0.20969639718532562,
				1.7000386714935303
			],
			"min":[
				-2.8915233612060547,
				-0.40317872166633606,
				-2.81667423248291
			],
			"type":"VEC3"
		},
		{
			"bufferView":5,
			"componentType":5126,
			"count":1212,
			"type":"VEC3"
		},
		{
			"bufferView":6,
			"componentType":5126,
			"count":1212,
			"type":"VEC2"
		},
		{
			"bufferView":7,
			"componentType":5123,
			"count":5760,
			"type":"SCALAR"
		},
		{
			"bufferView":8,
			"componentType":5126,
			"count":55328,
			"max":[
				2.805323362350464,
				0.0018620491027832031,
				1.6774157285690308
			],
			"min":[
				-2.8053927421569824,
				-0.6143068671226501,
				-2.702174425125122
			],
			"type":"VEC3"
		},
		{
			"bufferView":9,
			"componentType":5126,
			"count":55328,
			"type":"VEC3"
		},
		{
			"bufferView":10,
			"componentType":5126,
			"count":55328,
			"type":"VEC2"
		},
		{
			"bufferView":11,
			"componentType":5123,
			"count":151632,
			"type":"SCALAR"
		},
		{
			"bufferView":12,
			"componentType":5126,
			"count":2527,
			"max":[
				2.7392044067382812,
				-0.40035444498062134,
				1.4003465175628662
			],
			"min":[
				-1.6693459749221802,
				-0.48046720027923584,
				-2.6348817348480225
			],
			"type":"VEC3"
		},
		{
			"bufferView":13,
			"componentType":5126,
			"count":2527,
			"type":"VEC3"
		},
		{
			"bufferView":14,
			"componentType":5126,
			"count":2527,
			"type":"VEC2"
		},
		{
			"bufferView":15,
			"componentType":5123,
			"count":4128,
			"type":"SCALAR"
		},
		{
			"bufferView":16,
			"componentType":5126,
			"count":288,
			"max":[
				2.734509229660034,
				-0.480710506439209,
				1.6115530729293823
			],
			"min":[
				-2.734509229660034,
				-0.5354019403457642,
				-2.6700687408447266
			],
			"type":"VEC3"
		},
		{
			"bufferView":17,
			"componentType":5126,
			"count":288,
			"type":"VEC3"
		},
		{
			"bufferView":18,
			"componentType":5126,
			"count":288,
			"type":"VEC2"
		},
		{
			"bufferView":19,
			"componentType":5123,
			"count":564,
			"type":"SCALAR"
		},
		{
			"bufferView":20,
			"componentType":5126,
			"count":288,
			"max":[
				2.734509229660034,
				-0.08267053216695786,
				1.6115530729293823
			],
			"min":[
				-2.734509229660034,
				-0.13736197352409363,
				-2.6700687408447266
			],
			"type":"VEC3"
		},
		{
			"bufferView":21,
			"componentType":5126,
			"count":288,
			"type":"VEC3"
		},
		{
			"bufferView":22,
			"componentType":5126,
			"count":288,
			"type":"VEC2"
		}
	],
	"bufferViews":[
		{
			"buffer":0,
			"byteLength":478860,
			"byteOffset":0,
			"target":34962
		},
		{
			"buffer":0,
			"byteLength":478860,
			"byteOffset":478860,
			"target":34962
		},
		{
			"buffer":0,
			"byteLength":319240,
			"byteOffset":957720,
			"target":34962
		},
		{
			"buffer":0,
			"byteLength":196596,
			"byteOffset":1276960,
			"target":34963
		},
		{
			"buffer":0,
			"byteLength":14544,
			"byteOffset":1473556,
			"target":34962
		},
		{
			"buffer":0,
			"byteLength":14544,
			"byteOffset":1488100,
			"target":34962
		},
		{
			"buffer":0,
			"byteLength":9696,
			"byteOffset":1502644,
			"target":34962
		},
		{
			"buffer":0,
			"byteLength":11520,
			"byteOffset":1512340,
			"target":34963
		},
		{
			"buffer":0,
			"byteLength":663936,
			"byteOffset":1523860,
			"target":34962
		},
		{
			"buffer":0,
			"byteLength":663936,
			"byteOffset":2187796,
			"target":34962
		},
		{
			"buffer":0,
			"byteLength":442624,
			"byteOffset":2851732,
			"target":34962
		},
		{
			"buffer":0,
			"byteLength":303264,
			"byteOffset":3294356,
			"target":34963
		},
		{
			"buffer":0,
			"byteLength":30324,
			"byteOffset":3597620,
			"target":34962
		},
		{
			"buffer":0,
			"byteLength":30324,
			"byteOffset":3627944,
			"target":34962
		},
		{
			"buffer":0,
			"byteLength":20216,
			"byteOffset":3658268,
			"target":34962
		},
		{
			"buffer":0,
			"byteLength":8256,
			"byteOffset":3678484,
			"target":34963
		},
		{
			"buffer":0,
			"byteLength":3456,
			"byteOffset":3686740,
			"target":34962
		},
		{
			"buffer":0,
			"byteLength":3456,
			"byteOffset":3690196,
			"target":34962
		},
		{
			"buffer":0,
			"byteLength":2304,
			"byteOffset":3693652,
			"target":34962
		},
		{
			"buffer":0,
			"byteLength":1128,
			"byteOffset":3695956,
			"target":34963
		},
		{
			"buffer":0,
			"byteLength":3456,
			"byteOffset":3697084,
			"target":34962
		},
		{
			"buffer":0,
			"byteLength":3456,
			"byteOffset":3700540,
			"target":34962
		},
		{
			"buffer":0,
			"byteLength":2304,
			"byteOffset":3703996,
			"target":34962
		}
	],
	"samplers":[
		{
			"magFilter":9729,
			"minFilter":9987
		}
	],
	"buffers":[
		{
			"byteLength":3706300,
			"uri":"Apollo_Lunar_Module_Window.bin"
		}
	]
}
